<svg xmlns="http://www.w3.org/2000/svg" viewBox="0 0 540.51 148.92">
                    <g id="Layer_2" data-name="Layer 2"><g id="Layer_1-2" data-name="Layer 1">
                            <path class="cls-1" d="M142.1,116.55H126.49l.76-2.36q-4.12,3.33-10.72,3.33a9.17,9.17,0,0,1-7.08-2.7q-2.51-2.7-1.11-7.06L128,46.21h15.61l-18.31,57.21q-1,3.22,1.64,3.22t3.67-3.09L149,46.21h15.61Z"></path>
                            <path class="cls-1" d="M159.06,88.27h15.61l-4.75,14.82q-1.14,3.55,1.5,3.55c1.71,0,3.29-2.25,4.73-6.77q2.86-8.91.49-11.52-9.79-7.09-11.38-9.92c-1-1.87-1-4.7.23-8.46l3-9.45q4.77-14.87,22.71-14.86,17.46,0,12.9,14.23l-4.43,13.86h-15l3-8.42q2.79-8.79-.05-8.79T183,62.09q-1.81,5.7-1.49,8.62t11,10q4,4.31,1.71,11.4l-3.38,10.55q-4.74,14.86-23.16,14.86-18,0-13.46-14.23Z"></path>
                            <path class="cls-1" d="M203.31,88.27h15.61l-4.75,14.82q-1.12,3.55,1.5,3.55c1.72,0,3.3-2.25,4.74-6.77q2.85-8.91.49-11.52-9.81-7.09-11.39-9.92c-1-1.87-1-4.7.23-8.46l3-9.45q4.75-14.87,22.71-14.86,17.46,0,12.9,14.23l-4.44,13.86h-15l3-8.42q2.82-8.79-.06-8.79c-1.86,0-3.39,1.85-4.57,5.55s-1.72,6.67-1.5,8.62,3.89,5.27,11,10q4,4.31,1.71,11.4l-3.37,10.55q-4.75,14.86-23.16,14.86-18,0-13.47-14.23Z"></path>
                            <polygon class="cls-1" points="254.13 116.55 238.51 116.55 261.02 46.21 276.63 46.21 254.13 116.55"></polygon>
                            <path class="cls-1" d="M307.84,86.68H287l-5.25,16.39c-.75,2.38-.26,3.57,1.49,3.57s3-1.19,3.72-3.57l4.54-14.19h15.6l-4.58,14.35q-4.57,14.28-22.85,14.29T266.3,102.66l13.49-42.14q4.74-14.87,22.89-14.86T316.41,59.9Zm-12.23-10.6L300.77,60c.74-2.31.25-3.45-1.47-3.45s-3,1.14-3.74,3.45l-5.14,16.09Z"></path>
                            <path class="cls-1" d="M306.3,116.55l27.79-86.86h20.33q7.26,0,11.49,3.67t1.63,11.71l-3.86,12Q360.76,66.29,349.5,70q9.63,2.92,6.55,12.55l-5.39,16.84c-1.85,5.74-4.9,10-9.19,12.87A23.93,23.93,0,0,1,328,116.55Zm27.14-15.75,7-22c1-3-.2-4.54-3.47-4.54l-9.95,31.12A6.11,6.11,0,0,0,333.44,100.8Zm13-40.62,4.74-14.79c1-3-.19-4.55-3.46-4.55l-7.67,24A6.12,6.12,0,0,0,346.44,60.18Z"></path>
                            <path class="cls-1" d="M389.9,116.55H374.29l.77-2.36c-2.76,2.22-6.32,3.33-10.72,3.33a9.17,9.17,0,0,1-7.08-2.7c-1.68-1.8-2-4.15-1.11-7.06l19.7-61.55h15.62l-18.32,57.21q-1,3.22,1.64,3.22c1.78,0,3-1,3.66-3.09l18.36-57.34h15.61Z"></path>
                            <path class="cls-1" d="M455.63,116.55H440L458,60.3c.68-2.14.15-3.22-1.61-3.22s-3,1-3.7,3.1l-18,56.37H419.05L437.15,60c.68-2.15.15-3.22-1.62-3.22s-3,1-3.69,3.1l-18.13,56.64H398.1l22.51-70.34h15.62l-.79,2.42a18,18,0,0,1,10.64-3,9.24,9.24,0,0,1,8.33,4.78,19.11,19.11,0,0,1,12.72-4.78,9.17,9.17,0,0,1,6.76,2.7c1.79,1.8,2.19,4.29,1.17,7.49Z"></path>
                            <path class="cls-1" d="M75.88,93.48l-.15-.33q-9.95,9.22-17.65,15.1a93.26,93.26,0,0,1-13.49,8.85q-5.78,3-9.79,3-8.13,0-11.17-6.34T24,97.65a67.38,67.38,0,0,1,7.6-14.2A127.85,127.85,0,0,1,44.45,67.39,129.66,129.66,0,0,1,71.3,45.58q15.15-9.22,26.26-9.22,9.22,0,13.65,4.43T113.27,52a33.11,33.11,0,0,1-6.69,10.55c2.66,0,4.24.33,4.72,1s.32,2.16-.51,4.52c.07-.22-.49.94-1.71,3.47q-3.35,8.39-5.9,15.66c-.9,2.53-1.56,4.46-2,5.75s-.87,2.79-1.32,4.48-.77,3.06-1,4.06a40.45,40.45,0,0,0-1,7.87,58.73,58.73,0,0,1-11,7.32A20.71,20.71,0,0,1,78,119q-11.22,0-3.52-21.84M87.4,73.69l-1.62.51a35.18,35.18,0,0,1-8.2,1.69c-1.88,0-2.61-.56-2.22-1.68a18.85,18.85,0,0,1,2.18-3.11Q84.19,64,86.41,57.66a19.92,19.92,0,0,0,1.25-6.59c0-2-.47-3-1.36-3S84,49,81.72,51A136.57,136.57,0,0,0,64.91,68.37q-7.11,8.92-9.57,15.92a15.08,15.08,0,0,0-1.05,7.65c.39,2,1.39,3,3,3,1.44,0,4.69-1.75,9.79-5.23s11-8.12,17.83-13.86L87.55,74Z"></path>
                            <circle class="cls-1" cx="271.69" cy="31.74" r="9.53"></circle>
                            <path class="cls-2" d="M482.62,125c-1.21-.12-5-5.94-5.23-6.34a20.76,20.76,0,0,1-2.63-9.47,16.14,16.14,0,0,1,3.9-11.41c4.34-4.72,7.51-5.18,10.64-5.57,6.94-.85,13.07,4.28,14.38,5.74,4.17,4.69,4.79,9.66,4.42,12-1,6.18-5.24,9-8.31,9.61a12.26,12.26,0,0,1-9.77-2.07,15.11,15.11,0,0,1-4.33-5.69,10.24,10.24,0,0,1-.43-4.78,9.29,9.29,0,0,1,2.43-4.3c2.88-2.83,7.56-2.29,9.12-1a6,6,0,0,0-5.56,1.22c-.92.74-2.88,2.73-1.76,6.59a9.5,9.5,0,0,0,4,5.1,6.86,6.86,0,0,0,5.56.7,6.62,6.62,0,0,0,4.73-6.49c.1-6.2-6.21-11.25-10.88-12-3.35-.54-4.78-.39-8,1.27a11.84,11.84,0,0,0-5.13,6,12.79,12.79,0,0,0-.39,7.9,22.44,22.44,0,0,0,3,6.49,25.56,25.56,0,0,0,5.9,6,24.74,24.74,0,0,0,11.86,4.1c9.52.14,20.43-6.57,20-21.08S504.43,78.7,492.63,77.16c-.17,0-1.62,9.47-6.49,10.57-3.76.86-13,5.9-15.25,15.92-.68,3-1.34,10.38,1.4,14.81C473.19,120.2,482.62,125,482.62,125ZM501.2,107.4c.39,3.12-.39,5.46-3.51,6.63a2.86,2.86,0,0,1-.78-1.56C499.25,112.47,501.2,109.74,501.2,107.4Zm-.37.3-.06.23-.22.51-.45.9-.16.39-.2.35-.13.15-.16.12-.19.07-.23,0-.38-.1-.26,0-.28,0-.39-.1-.17-.11-.1-.16-.09-.34-.39-.56,0,0-.06,0,.09-.1.13-.07v0H497v-.06H497l0,.06-.23.14-.11.09,0,.1h-.05v-.06h-.06l-.26-.34-.36-.29-.2-.11-.35-.07-.09,0-.23,0-.4.12-.24,0-.24,0-.75.51-.8,0-.22.07-.21.11-.22.11-.24,0-.15,0-.11-.1-.09-.09-.1,0v-.11l.11-.12.06-.13v-.27l-.18-.54,0-.27-.08-.25-.19-.22-.11-.13,0-.11.17-.1.07,0v0h0v-.39l0-.38.12-.21.19-.16.24-.1.25,0,.16-.13.08-.07,0-.08h.26l.13-.05.29-.16.6-.67.16.06.11-.06.08-.26.22-.25.3,0,.36.06.14,0,.25-.08.19-.27.23-.28.33-.07.3,0,.33.09.13.23c0,.06-.06.47,0,.45,1.32.66.79.77,1.21.67.59-.61.3-1.38.48-1.43s.26.39.26.39l.23.27.07.09.16.24,0,.17v.18l0,.18.07.15.12.12.14.1.28.18.3.48.37.4.19.21.15.22.11.47.11.27.06.29Z"></path>
                            <path class="cls-3" d="M142.1,116.53H126.49l.76-2.37c-2.75,2.23-6.33,3.33-10.72,3.33a9.2,9.2,0,0,1-7.08-2.69q-2.51-2.72-1.11-7.06L128,46.18h15.61L125.34,103.4q-1,3.22,1.64,3.22c1.79,0,3-1,3.67-3.1L149,46.18h15.61Z"></path>
                            <path class="cls-3" d="M159.06,88.25h15.61l-4.75,14.81q-1.14,3.56,1.5,3.56t4.73-6.78c1.91-5.93,2.07-9.78.49-11.52q-9.79-7.08-11.38-9.91c-1-1.88-1-4.7.23-8.46l3-9.46q4.77-14.85,22.71-14.86,17.46,0,12.9,14.23l-4.43,13.87h-15l3-8.43q2.79-8.79-.05-8.79T183,62.07c-1.21,3.8-1.71,6.66-1.49,8.61s3.88,5.27,11,10q4,4.3,1.71,11.4l-3.38,10.55q-4.74,14.87-23.16,14.86-18,0-13.46-14.23Z"></path>
                            <path class="cls-3" d="M203.31,88.25h15.61l-4.75,14.81q-1.12,3.56,1.5,3.56t4.74-6.78c1.9-5.93,2.06-9.78.49-11.52q-9.81-7.08-11.39-9.91c-1-1.88-1-4.7.23-8.46l3-9.46q4.75-14.85,22.71-14.86,17.46,0,12.9,14.23l-4.44,13.87h-15l3-8.43q2.82-8.79-.06-8.79c-1.86,0-3.39,1.85-4.57,5.56s-1.72,6.66-1.5,8.61,3.89,5.27,11,10q4,4.3,1.71,11.4l-3.37,10.55Q230.38,117.5,212,117.49q-18,0-13.47-14.23Z"></path>
                            <polygon class="cls-3" points="254.13 116.53 238.51 116.53 261.02 46.18 276.63 46.18 254.13 116.53"></polygon>
                            <path class="cls-3" d="M307.84,86.66H287l-5.25,16.39c-.75,2.38-.26,3.57,1.49,3.57s3-1.2,3.72-3.58l4.54-14.18h15.6l-4.58,14.34q-4.57,14.3-22.85,14.29T266.3,102.63l13.49-42.14q4.74-14.85,22.89-14.86t13.73,14.24ZM295.61,76.05,300.77,60c.74-2.31.25-3.45-1.47-3.45s-3,1.14-3.74,3.45l-5.14,16.09Z"></path>
                            <path class="cls-3" d="M306.3,116.53l27.79-86.87h20.33q7.26,0,11.49,3.67T367.54,45L363.68,57.1Q360.76,66.25,349.5,70q9.63,2.91,6.55,12.54l-5.39,16.84c-1.85,5.74-4.9,10-9.19,12.88A24,24,0,0,1,328,116.53Zm27.14-15.76,7-22c1-3-.2-4.54-3.47-4.54l-9.95,31.11A6.11,6.11,0,0,0,333.44,100.77Zm13-40.61,4.74-14.8c1-3-.19-4.55-3.46-4.55l-7.67,24A6.12,6.12,0,0,0,346.44,60.16Z"></path>
                            <path class="cls-3" d="M389.9,116.53H374.29l.77-2.37c-2.76,2.23-6.32,3.33-10.72,3.33a9.2,9.2,0,0,1-7.08-2.69c-1.68-1.81-2-4.16-1.11-7.06l19.7-61.56h15.62L373.15,103.4q-1,3.22,1.64,3.22c1.78,0,3-1,3.66-3.1l18.36-57.34h15.61Z"></path>
                            <path class="cls-3" d="M455.63,116.53H440l18-56.26c.68-2.14.15-3.21-1.61-3.21s-3,1-3.7,3.09l-18,56.38H419.05L437.15,60c.68-2.15.15-3.22-1.62-3.22s-3,1-3.69,3.1l-18.13,56.65H398.1l22.51-70.35h15.62l-.79,2.42a18,18,0,0,1,10.64-3,9.23,9.23,0,0,1,8.33,4.79,19.07,19.07,0,0,1,12.72-4.79,9.17,9.17,0,0,1,6.76,2.7c1.79,1.8,2.19,4.3,1.17,7.49Z"></path>
                            <path class="cls-3" d="M75.88,93.46l-.15-.34q-9.95,9.22-17.65,15.11a93.26,93.26,0,0,1-13.49,8.85q-5.78,2.94-9.79,3c-5.42,0-9.15-2.12-11.17-6.33s-1.89-9.58.39-16.07a67.18,67.18,0,0,1,7.6-14.21A128.81,128.81,0,0,1,71.3,45.55q15.15-9.22,26.26-9.22,9.22,0,13.65,4.43T113.27,52a33.11,33.11,0,0,1-6.69,10.55c2.66,0,4.24.33,4.72,1s.32,2.16-.51,4.52c.07-.22-.49.94-1.71,3.48q-3.35,8.37-5.9,15.65-1.35,3.81-2,5.75c-.43,1.29-.87,2.79-1.32,4.48s-.77,3.06-1,4.07a40.35,40.35,0,0,0-1,7.86,58.24,58.24,0,0,1-11,7.32,20.59,20.59,0,0,1-9,2.33q-11.22,0-3.52-21.84M87.4,73.66l-1.62.51a35.18,35.18,0,0,1-8.2,1.69c-1.88,0-2.61-.56-2.22-1.67a18.73,18.73,0,0,1,2.18-3.12q6.64-7.14,8.87-13.44A19.83,19.83,0,0,0,87.66,51c0-2-.47-3-1.36-3S84,49,81.72,50.92A137.28,137.28,0,0,0,64.91,68.35q-7.11,8.93-9.57,15.91-1.64,4.63-1.05,7.65t3,3c1.44,0,4.69-1.75,9.79-5.23s11-8.12,17.83-13.86L87.55,74Z"></path>
                            <circle class="cls-3" cx="271.69" cy="31.71" r="9.53"></circle>
                            <path class="cls-4" d="M482.62,124.93c-1.21-.12-5-5.93-5.23-6.34a20.76,20.76,0,0,1-2.63-9.46,16.18,16.18,0,0,1,3.9-11.42c4.34-4.72,7.51-5.18,10.64-5.56,6.94-.86,13.07,4.27,14.38,5.74,4.17,4.68,4.79,9.65,4.42,12-1,6.18-5.24,9-8.31,9.61a12.26,12.26,0,0,1-9.77-2.06,15.13,15.13,0,0,1-4.33-5.7,10.23,10.23,0,0,1-.43-4.78,9.27,9.27,0,0,1,2.43-4.29c2.88-2.83,7.56-2.3,9.12-1a6,6,0,0,0-5.56,1.22c-.92.74-2.88,2.73-1.76,6.59a9.52,9.52,0,0,0,4,5.11,6.94,6.94,0,0,0,5.56.7,6.63,6.63,0,0,0,4.73-6.49c.1-6.2-6.21-11.25-10.88-12-3.35-.54-4.78-.39-8,1.27a11.84,11.84,0,0,0-5.13,6,12.83,12.83,0,0,0-.39,7.91,22.47,22.47,0,0,0,3,6.48,25.65,25.65,0,0,0,5.9,6.06,24.85,24.85,0,0,0,11.86,4.1c9.52.13,20.43-6.58,20-21.08s-15.77-28.84-27.57-30.38c-.17,0-1.62,9.46-6.49,10.57-3.76.85-13,5.89-15.25,15.91-.68,3.06-1.34,10.38,1.4,14.82C473.19,120.18,482.62,124.93,482.62,124.93Zm18.58-17.56c.39,3.12-.39,5.46-3.51,6.64a2.9,2.9,0,0,1-.78-1.56C499.25,112.45,501.2,109.71,501.2,107.37Zm-.37.3-.06.23-.22.51-.45.9-.16.39-.2.36-.13.15-.16.11-.19.07-.23,0-.38-.1-.26,0-.28,0-.39-.11-.17-.11-.1-.15-.09-.35-.39-.55,0,0-.06,0,.09-.1.13-.06v-.06H497v0H497l0,0-.23.14-.11.1,0,.09h-.05v0h-.06l-.26-.35-.36-.29-.2-.11-.35-.06-.09,0-.23,0-.4.12h-.24l-.24,0-.75.51-.8,0-.22.07-.21.12-.22.1-.24,0-.15,0-.11-.09-.09-.09-.1,0v-.11l.11-.13.06-.13v-.26l-.18-.54,0-.27-.08-.25-.19-.23-.11-.12,0-.12.17-.09.07,0v0h0v-.38l0-.39.12-.21.19-.16.24-.1.25,0,.16-.12.08-.08,0-.08h.26l.13,0,.29-.17.6-.66.16,0,.11,0,.08-.26.22-.26.3,0,.36,0,.14,0,.25-.07.19-.28.23-.27.33-.07h.3l.33.09.13.24c0,.05-.06.46,0,.44,1.32.67.79.78,1.21.67.59-.61.3-1.38.48-1.43s.26.39.26.39l.23.27.07.09.16.24,0,.17v.18l0,.18.07.16.12.12.14.09.28.19.3.48.37.4.19.2.15.22.11.47.11.27.06.29Z"></path>
                            <path class="cls-5" d="M483.12,124.45c-1.22-.12-5-5.93-5.24-6.34a20.76,20.76,0,0,1-2.63-9.46,16.18,16.18,0,0,1,3.9-11.42c4.34-4.72,7.51-5.18,10.64-5.56,6.94-.86,13.08,4.27,14.38,5.74,4.17,4.68,4.79,9.65,4.42,12-1,6.18-5.24,9-8.31,9.61a12.26,12.26,0,0,1-9.77-2.06,15.24,15.24,0,0,1-4.33-5.7,10.23,10.23,0,0,1-.43-4.78,9.45,9.45,0,0,1,2.43-4.29c2.88-2.83,7.56-2.3,9.12-1a6,6,0,0,0-5.56,1.22c-.91.74-2.88,2.73-1.76,6.59a9.52,9.52,0,0,0,4,5.11,6.94,6.94,0,0,0,5.56.7,6.63,6.63,0,0,0,4.73-6.49c.1-6.2-6.21-11.25-10.88-12-3.35-.54-4.78-.39-7.95,1.27a11.84,11.84,0,0,0-5.13,6,12.83,12.83,0,0,0-.39,7.91,22.47,22.47,0,0,0,3,6.48,25.65,25.65,0,0,0,5.9,6.06,24.85,24.85,0,0,0,11.86,4.1c9.52.13,20.43-6.58,20-21.08S504.92,78.2,493.12,76.66c-.17,0-1.62,9.46-6.48,10.57-3.77.85-13,5.89-15.26,15.91-.68,3.06-1.34,10.38,1.4,14.82C473.68,119.7,483.12,124.45,483.12,124.45Zm18.58-17.56c.39,3.12-.39,5.46-3.52,6.64a2.9,2.9,0,0,1-.78-1.56C499.74,112,501.7,109.23,501.7,106.89Zm-.38.3-.06.23-.22.51-.45.9-.15.39-.2.36-.14.15-.16.11-.19.07-.23,0-.38-.1-.26,0-.28,0-.39-.11-.16-.11-.11-.15-.09-.35-.39-.55,0-.05-.06,0,.09-.1.13-.06v-.06h-.06v0h-.08l0,0-.23.14-.11.1,0,.09H497v0h-.06l-.26-.35-.36-.29-.2-.11-.35-.06-.09,0-.23,0-.4.12h-.24l-.23,0-.76.51-.8,0-.21.07-.22.12-.22.1-.24,0-.15,0-.11-.09-.09-.09-.09,0v-.11l.1-.13.06-.13v-.26l-.18-.54-.05-.27-.08-.25-.19-.23-.11-.12,0-.12.17-.09.07,0v0h0v-.38l0-.39.12-.21.19-.16.25-.1.24,0,.16-.12.08-.08,0-.08h.25l.13,0,.29-.17.6-.66.16.05.11-.05.08-.26.23-.26.3,0,.35,0,.14,0,.25-.07.19-.28.24-.27.32-.07h.31l.32.09.13.24c.05,0-.06.46,0,.44,1.31.67.78.78,1.2.67.59-.61.3-1.38.48-1.43s.26.39.26.39l.23.27.07.09.16.24.05.17v.18l0,.18.07.16.12.12.14.09.28.19.3.48.37.4.19.2.15.22.12.47.1.27.07.29Z"></path>
                            <path class="cls-5" d="M140.27,115.37H124.66l.75-2.36c-2.74,2.22-6.32,3.33-10.71,3.33a9.19,9.19,0,0,1-7.09-2.7c-1.67-1.8-2-4.15-1.1-7.06L126.21,45h15.61l-18.31,57.21q-1,3.23,1.64,3.22t3.67-3.09L147.17,45h15.61Z"></path>
                            <path class="cls-5" d="M157.22,87.09h15.62l-4.75,14.82q-1.14,3.56,1.5,3.55c1.71,0,3.29-2.25,4.73-6.77q2.87-8.91.49-11.52-9.8-7.1-11.38-9.92t.22-8.46l3-9.45q4.75-14.87,22.71-14.86,17.46,0,12.9,14.22l-4.43,13.87h-15l3-8.42q2.81-8.79-.05-8.8c-1.86,0-3.39,1.86-4.58,5.56s-1.71,6.67-1.49,8.62,3.88,5.27,11,10q4,4.31,1.72,11.4L189,101.47q-4.74,14.88-23.16,14.87-18,0-13.46-14.23Z"></path>
                            <path class="cls-5" d="M201.47,87.09h15.62l-4.75,14.82q-1.12,3.56,1.5,3.55c1.72,0,3.3-2.25,4.74-6.77q2.85-8.91.49-11.52-9.81-7.1-11.39-9.92c-1-1.88-1-4.7.23-8.46l3-9.45q4.76-14.87,22.71-14.86,17.46,0,12.9,14.22l-4.44,13.87h-15l3-8.42q2.82-8.79-.05-8.8c-1.87,0-3.39,1.86-4.57,5.56s-1.72,6.67-1.5,8.62,3.89,5.27,11,10c2.65,2.87,3.23,6.67,1.71,11.4l-3.37,10.54q-4.76,14.88-23.16,14.87-18,0-13.47-14.23Z"></path>
                            <polygon class="cls-5" points="252.3 115.37 236.68 115.37 259.19 45.03 274.8 45.03 252.3 115.37"></polygon>
                            <path class="cls-5" d="M306,85.5H285.19l-5.25,16.39q-1.14,3.57,1.49,3.57t3.72-3.57l4.54-14.19h15.6l-4.58,14.35q-4.57,14.28-22.85,14.29t-13.39-14.87L278,59.34q4.74-14.87,22.89-14.86t13.72,14.23ZM293.78,74.9l5.16-16.09c.73-2.31.25-3.46-1.47-3.46s-3,1.15-3.74,3.46L288.59,74.9Z"></path>
                            <path class="cls-5" d="M304.47,115.37l27.78-86.86h20.34q7.26,0,11.48,3.67t1.64,11.71l-3.86,12q-2.93,9.16-14.18,12.9,9.63,2.93,6.54,12.55l-5.39,16.84q-2.76,8.59-9.18,12.87a23.93,23.93,0,0,1-13.44,4.27Zm27.14-15.75,7-22c1-3-.2-4.54-3.47-4.54l-9.95,31.11A6.11,6.11,0,0,0,331.61,99.62Zm13-40.62,4.74-14.8c1-3-.19-4.54-3.46-4.54l-7.67,24A6.13,6.13,0,0,0,344.61,59Z"></path>
                            <path class="cls-5" d="M388.07,115.37H372.46l.77-2.36c-2.76,2.22-6.32,3.33-10.73,3.33a9.16,9.16,0,0,1-7.07-2.7c-1.68-1.8-2-4.15-1.11-7.06L374,45h15.63l-18.32,57.21q-1,3.23,1.64,3.22c1.78,0,3-1,3.66-3.09L395,45h15.62Z"></path>
                            <path class="cls-5" d="M453.8,115.37H438.19l18-56.26c.68-2.14.15-3.21-1.61-3.21s-3,1-3.7,3.1l-18.05,56.37H417.22l18.1-56.52c.68-2.15.15-3.22-1.62-3.22s-3,1-3.69,3.1l-18.13,56.64H396.27L418.78,45h15.61l-.78,2.42a17.93,17.93,0,0,1,10.64-3,9.24,9.24,0,0,1,8.33,4.78,19.11,19.11,0,0,1,12.71-4.78,9.17,9.17,0,0,1,6.77,2.7c1.79,1.8,2.18,4.29,1.17,7.49Z"></path>
                            <path class="cls-5" d="M74.16,92l-.11.33L73.9,92q-9.95,9.21-17.65,15.1a93.26,93.26,0,0,1-13.49,8.85q-5.77,3-9.8,3-8.13,0-11.16-6.34t.39-16.07a66.92,66.92,0,0,1,7.6-14.2A127.85,127.85,0,0,1,42.62,66.21,130,130,0,0,1,69.47,44.39q15.15-9.22,26.26-9.21,9.21,0,13.65,4.43t2.06,11.19a33.11,33.11,0,0,1-6.69,10.55c2.66,0,4.23.32,4.72,1s.32,2.15-.51,4.52c.07-.23-.49.94-1.71,3.47q-3.34,8.39-5.9,15.65c-.9,2.54-1.57,4.47-2,5.75s-.87,2.8-1.32,4.49-.77,3.06-1,4.06a39.7,39.7,0,0,0-1,7.87,58.73,58.73,0,0,1-11,7.32,20.71,20.71,0,0,1-9,2.32q-11.24,0-3.52-21.84C73.28,94.25,73.77,92.93,74.16,92ZM85.57,72.51,84,73a34.82,34.82,0,0,1-8.2,1.7c-1.88,0-2.61-.56-2.22-1.68a18.85,18.85,0,0,1,2.18-3.11q6.65-7.14,8.87-13.44a19.93,19.93,0,0,0,1.25-6.6c0-2-.47-3-1.36-3s-2.3,1-4.58,2.86A137.28,137.28,0,0,0,63.08,67.19Q56,76.12,53.5,83.11a15.19,15.19,0,0,0-1,7.65c.4,2,1.4,3,3,3,1.44,0,4.69-1.74,9.78-5.23s11-8.11,17.84-13.86l2.63-1.86Z"></path>
                            <circle class="cls-5" cx="269.86" cy="30.55" r="9.53"></circle><text></text>
                        </g></g>
                </svg>